<svg width="62" height="62" viewBox="0 0 62 62" fill="none" xmlns="http://www.w3.org/2000/svg">
<g filter="url(#filter0_d_1_357)">
<circle cx="31.001" cy="27" r="17" fill="black"/>
</g>
<g clip-path="url(#clip0_1_357)">
<path d="M35.9981 32V31.9996H36.0008V27.9653C36.0008 25.9917 35.5759 24.4714 33.2687 24.4714C32.1595 24.4714 31.4152 25.0801 31.1113 25.6571H31.0792V24.6557H28.8916V31.9996H31.1695V28.3631C31.1695 27.4057 31.351 26.4799 32.5367 26.4799C33.705 26.4799 33.7224 27.5725 33.7224 28.4246V32H35.9981Z" fill="white"/>
<path d="M25.1826 24.6561H27.4633V32H25.1826V24.6561Z" fill="white"/>
<path d="M26.3219 21C25.5927 21 25.001 21.5917 25.001 22.3209C25.001 23.0501 25.5927 23.6542 26.3219 23.6542C27.0511 23.6542 27.6428 23.0501 27.6428 22.3209C27.6424 21.5917 27.0506 21 26.3219 21V21Z" fill="white"/>
</g>
<defs>
<filter id="filter0_d_1_357" x="0.000976562" y="0" width="62" height="62" filterUnits="userSpaceOnUse" color-interpolation-filters="sRGB">
<feFlood flood-opacity="0" result="BackgroundImageFix"/>
<feColorMatrix in="SourceAlpha" type="matrix" values="0 0 0 0 0 0 0 0 0 0 0 0 0 0 0 0 0 0 127 0" result="hardAlpha"/>
<feOffset dy="4"/>
<feGaussianBlur stdDeviation="7"/>
<feColorMatrix type="matrix" values="0 0 0 0 0 0 0 0 0 0 0 0 0 0 0 0 0 0 0.15 0"/>
<feBlend mode="normal" in2="BackgroundImageFix" result="effect1_dropShadow_1_357"/>
<feBlend mode="normal" in="SourceGraphic" in2="effect1_dropShadow_1_357" result="shape"/>
</filter>
<clipPath id="clip0_1_357">
<rect width="11" height="11" fill="white" transform="translate(25.001 21)"/>
</clipPath>
</defs>
</svg>
