<svg width="51" height="60" viewBox="0 0 51 60" fill="none" xmlns="http://www.w3.org/2000/svg">
<path d="M47.82 56.796V52.4634C47.82 49.5441 47.82 48.0859 47.4824 46.8937C47.066 45.4176 46.2779 44.073 45.1934 42.9885C44.1089 41.904 42.7643 41.1159 41.2882 40.6996C40.096 40.362 38.6379 40.362 35.7186 40.362H15.1014C12.1821 40.362 10.724 40.362 9.53177 40.6996C8.05565 41.1159 6.71105 41.904 5.62656 42.9885C4.54207 44.073 3.75397 45.4176 3.33764 46.8937C3 48.0859 3 49.5441 3 52.4634V56.796M39.4536 15.1432C39.4536 21.8513 33.8362 27.2895 26.904 27.2895C19.9718 27.2895 14.3544 21.8513 14.3544 15.1432C14.3544 8.43517 19.9718 3 26.904 3C33.8362 3 39.4536 8.43816 39.4536 15.1432Z" stroke="#526EB6" stroke-width="5.976" stroke-linecap="round" stroke-linejoin="round"/>
</svg>
